<svg width="60" height="60" viewBox="0 0 60 60" fill="none" xmlns="http://www.w3.org/2000/svg">
<path d="M38.25 25.1925L46.6775 16.75L45.3125 15.385L38.25 22.4475L34.6875 18.9325L33.3225 20.3125L38.25 25.1925ZM10 48.75V46.25H37.5V48.75H10ZM40.0075 31.25C36.8975 31.25 34.2433 30.1542 32.045 27.9625C29.8483 25.7692 28.75 23.1175 28.75 20.0075C28.75 16.8975 29.8458 14.2433 32.0375 12.045C34.2308 9.84833 36.8825 8.75 39.9925 8.75C43.1025 8.75 45.7567 9.84583 47.955 12.0375C50.1517 14.2308 51.25 16.8825 51.25 19.9925C51.25 23.1025 50.1542 25.7567 47.9625 27.955C45.7692 30.1517 43.1175 31.25 40.0075 31.25ZM10 28.75V26.25H23.4425C23.6058 26.7167 23.7867 27.1508 23.985 27.5525C24.185 27.9525 24.4108 28.3517 24.6625 28.75H10ZM10 38.75V36.25H33.1625C33.8325 36.545 34.5325 36.8025 35.2625 37.0225C35.9958 37.2408 36.7417 37.4017 37.5 37.505V38.75H10Z" fill="#F8F8F8"/>
</svg>
